<svg xmlns="http://www.w3.org/2000/svg" viewBox="0 0 180 180" width="180" height="180">
  <rect width="180" height="180" rx="28" fill="#ffffff"/>
  <rect x="12" y="12" width="156" height="156" rx="16" fill="#ecd7cf"/>
  <g transform="translate(30 30) scale(1.5)" fill="none">
    <rect x="10" y="32" width="60" height="30" rx="3" fill="#faf4ee"/>
    <rect x="10" y="26" width="60" height="8" rx="2.5" fill="#7a1220"/>
    <path d="M20 34 v28 M30 34 v28 M40 34 v28 M50 34 v28 M60 34 v28" stroke="#cdbdb4" stroke-width="1.6"/>
    <rect x="16" y="34" width="6" height="18" fill="#241c1e"/>
    <rect x="27" y="34" width="6" height="18" fill="#241c1e"/>
    <rect x="47" y="34" width="6" height="18" fill="#241c1e"/>
    <rect x="58" y="34" width="6" height="18" fill="#241c1e"/>
    <circle cx="52" cy="20" r="3.6" fill="#f0b982"/>
    <circle cx="63" cy="16" r="3.6" fill="#f0b982"/>
    <path d="M55.6 20 V8 M66.6 16 V4 M55.6 8 L66.6 4.5" stroke="#f0b982" stroke-width="2.2" stroke-linecap="round"/>
  </g>
</svg>
